<?xml version="1.0" encoding="UTF-8" standalone="no"?>
<!-- Created with Inkscape (http://www.inkscape.org/) -->

<svg
   xmlns:dc="http://purl.org/dc/elements/1.1/"
   xmlns:cc="http://creativecommons.org/ns#"
   xmlns:rdf="http://www.w3.org/1999/02/22-rdf-syntax-ns#"
   xmlns:svg="http://www.w3.org/2000/svg"
   xmlns="http://www.w3.org/2000/svg"
   xmlns:xlink="http://www.w3.org/1999/xlink"
   xmlns:sodipodi="http://sodipodi.sourceforge.net/DTD/sodipodi-0.dtd"
   xmlns:inkscape="http://www.inkscape.org/namespaces/inkscape"
   version="1.1"
   id="svg2"
   width="256"
   height="192"
   viewBox="0 0 256 192"
   sodipodi:docname="charIntroAnim.svg"
   inkscape:version="0.92.1 r15371">
  <metadata
     id="metadata8">
    <rdf:RDF>
      <cc:Work
         rdf:about="">
        <dc:format>image/svg+xml</dc:format>
        <dc:type
           rdf:resource="http://purl.org/dc/dcmitype/StillImage" />
      </cc:Work>
    </rdf:RDF>
  </metadata>
  <defs
     id="defs6" />
  <sodipodi:namedview
     pagecolor="#ffffff"
     bordercolor="#666666"
     borderopacity="1"
     objecttolerance="10"
     gridtolerance="10"
     guidetolerance="10"
     inkscape:pageopacity="0"
     inkscape:pageshadow="2"
     inkscape:window-width="1920"
     inkscape:window-height="1001"
     id="namedview4"
     showgrid="false"
     inkscape:zoom="1"
     inkscape:cx="81.917569"
     inkscape:cy="89.385417"
     inkscape:window-x="-9"
     inkscape:window-y="-9"
     inkscape:window-maximized="1"
     inkscape:current-layer="svg2" />
  <!--Below is the background rectangle. It's easy to see where to change the color. -->
  <rect
     style="fill:#138f51;fill-opacity:1;stroke:none;stroke-width:1.12800002;stroke-miterlimit:4;stroke-dasharray:none;stroke-opacity:1"
     id="rect4583"
     width="256"
     height="192"
     x="0"
     y="0" />
  <g
     id="g4597"
     transform="matrix(1,0,0,0.80952361,0,38.742139)">
    <rect
       style="stroke-width:0.87432724"
       y="162.43567"
       x="-8.0792084"
       height="5.3754349"
       width="282.53467"
       id="rect3682" />
    <rect
       style="stroke-width:0.76930541"
       id="rect3684"
       width="282.53467"
       height="4.1616273"
       x="-8.3168325"
       y="168.98636" />
    <rect
       y="174.8242"
       x="-8.3168325"
       height="2.7744181"
       width="282.53467"
       id="rect3686"
       style="stroke-width:0.62813526" />
    <rect
       style="stroke-width:0.49658453"
       id="rect3688"
       width="282.53467"
       height="1.7340114"
       x="-8.3168325"
       y="180.66203" />
  </g>
  <path
     style="fill:#000000;fill-opacity:0.25098041;stroke:none;stroke-width:1.52387297;stroke-miterlimit:4;stroke-dasharray:none;stroke-opacity:1"
     d="M 219.60938 -21.826172 A 107.36822 107.36822 0 0 0 112.24023 85.542969 A 107.36822 107.36822 0 0 0 219.60938 192.91016 A 107.36822 107.36822 0 0 0 326.97656 85.542969 A 107.36822 107.36822 0 0 0 219.60938 -21.826172 z M 219.60938 -0.27539062 A 85.817039 85.817039 0 0 1 228.17578 0.15429688 A 85.817039 85.817039 0 0 1 236.6582 1.4355469 A 85.817039 85.817039 0 0 1 244.9707 3.5585938 A 85.817039 85.817039 0 0 1 253.02734 6.5 A 85.817039 85.817039 0 0 1 260.75195 10.230469 A 85.817039 85.817039 0 0 1 268.06445 14.714844 A 85.817039 85.817039 0 0 1 274.89453 19.90625 A 85.817039 85.817039 0 0 1 281.16992 25.751953 A 85.817039 85.817039 0 0 1 286.83203 32.197266 A 85.817039 85.817039 0 0 1 291.82227 39.175781 A 85.817039 85.817039 0 0 1 296.08984 46.615234 A 85.817039 85.817039 0 0 1 299.59375 54.445312 A 85.817039 85.817039 0 0 1 302.29883 62.585938 A 85.817039 85.817039 0 0 1 304.17773 70.955078 A 85.817039 85.817039 0 0 1 305.21094 79.470703 A 85.817039 85.817039 0 0 1 305.42578 85.542969 A 85.817039 85.817039 0 0 1 304.99805 94.109375 A 85.817039 85.817039 0 0 1 303.71484 102.5918 A 85.817039 85.817039 0 0 1 301.59375 110.90234 A 85.817039 85.817039 0 0 1 298.65234 118.96094 A 85.817039 85.817039 0 0 1 294.91992 126.68555 A 85.817039 85.817039 0 0 1 290.4375 133.99805 A 85.817039 85.817039 0 0 1 285.24609 140.82617 A 85.817039 85.817039 0 0 1 279.39844 147.10352 A 85.817039 85.817039 0 0 1 272.95312 152.76562 A 85.817039 85.817039 0 0 1 265.97656 157.75391 A 85.817039 85.817039 0 0 1 258.53516 162.02344 A 85.817039 85.817039 0 0 1 250.70508 165.52734 A 85.817039 85.817039 0 0 1 242.56445 168.23242 A 85.817039 85.817039 0 0 1 234.19531 170.11133 A 85.817039 85.817039 0 0 1 225.67969 171.14453 A 85.817039 85.817039 0 0 1 219.60938 171.35938 A 85.817039 85.817039 0 0 1 211.04102 170.92969 A 85.817039 85.817039 0 0 1 202.56055 169.64844 A 85.817039 85.817039 0 0 1 194.24805 167.52539 A 85.817039 85.817039 0 0 1 186.18945 164.58398 A 85.817039 85.817039 0 0 1 178.4668 160.85352 A 85.817039 85.817039 0 0 1 171.15234 156.36914 A 85.817039 85.817039 0 0 1 164.32422 151.17773 A 85.817039 85.817039 0 0 1 158.04688 145.33203 A 85.817039 85.817039 0 0 1 152.38672 138.88672 A 85.817039 85.817039 0 0 1 147.39648 131.91016 A 85.817039 85.817039 0 0 1 143.12891 124.46875 A 85.817039 85.817039 0 0 1 139.625 116.63867 A 85.817039 85.817039 0 0 1 136.91992 108.49805 A 85.817039 85.817039 0 0 1 135.04102 100.12891 A 85.817039 85.817039 0 0 1 134.00781 91.613281 A 85.817039 85.817039 0 0 1 133.79297 85.542969 A 85.817039 85.817039 0 0 1 134.2207 76.974609 A 85.817039 85.817039 0 0 1 135.50195 68.492188 A 85.817039 85.817039 0 0 1 137.625 60.181641 A 85.817039 85.817039 0 0 1 140.56641 52.123047 A 85.817039 85.817039 0 0 1 144.29688 44.398438 A 85.817039 85.817039 0 0 1 148.78125 37.085938 A 85.817039 85.817039 0 0 1 153.97266 30.257812 A 85.817039 85.817039 0 0 1 159.82031 23.980469 A 85.817039 85.817039 0 0 1 166.26367 18.318359 A 85.817039 85.817039 0 0 1 173.24219 13.330078 A 85.817039 85.817039 0 0 1 180.68359 9.0605469 A 85.817039 85.817039 0 0 1 188.51172 5.5566406 A 85.817039 85.817039 0 0 1 196.65234 2.8515625 A 85.817039 85.817039 0 0 1 205.02344 0.97460938 A 85.817039 85.817039 0 0 1 213.53906 -0.060546875 A 85.817039 85.817039 0 0 1 219.60938 -0.27539062 z "
     id="path4519" />
  <!-- Middle ring is here. Spin it 'round! -->
  <g
     id="g4570"
     style="fill:#000000;fill-opacity:0.25098041">
    <path
       id="path4559"
       d="M 201.46289 162.51953 L 201.46289 150.61523 A 67.623474 67.623474 0 0 1 199.625 150.14453 A 67.623474 67.623474 0 0 1 193.27539 147.82812 A 67.623474 67.623474 0 0 1 187.18945 144.88672 A 67.623474 67.623474 0 0 1 181.42578 141.35352 A 67.623474 67.623474 0 0 1 176.04492 137.26367 A 67.623474 67.623474 0 0 1 171.09961 132.65625 A 67.623474 67.623474 0 0 1 166.63867 127.57812 A 67.623474 67.623474 0 0 1 162.70508 122.08008 A 67.623474 67.623474 0 0 1 159.3418 116.2168 A 67.623474 67.623474 0 0 1 156.58203 110.04688 A 67.623474 67.623474 0 0 1 154.44922 103.63086 A 67.623474 67.623474 0 0 1 154.42383 103.52148 L 142.62305 103.52148 A 79.139954 79.139954 0 0 0 201.46289 162.51953 z "
       style="fill:#000000;fill-opacity:0.25098041;stroke:none;stroke-width:1.12323034;stroke-miterlimit:4;stroke-dasharray:none;stroke-opacity:1" />
    <path
       id="path4564"
       d="M 296.62695 103.52148 L 284.72461 103.52148 A 67.623474 67.623474 0 0 1 284.21289 105.52539 A 67.623474 67.623474 0 0 1 281.89453 111.875 A 67.623474 67.623474 0 0 1 278.95508 117.96289 A 67.623474 67.623474 0 0 1 275.42188 123.72461 A 67.623474 67.623474 0 0 1 271.33008 129.10547 A 67.623474 67.623474 0 0 1 266.72266 134.05273 A 67.623474 67.623474 0 0 1 261.64453 138.51367 A 67.623474 67.623474 0 0 1 256.14648 142.44531 A 67.623474 67.623474 0 0 1 250.2832 145.80859 A 67.623474 67.623474 0 0 1 244.11328 148.57031 A 67.623474 67.623474 0 0 1 237.75586 150.68164 L 237.75586 162.48438 A 79.139954 79.139954 0 0 0 296.62695 103.52148 z "
       style="fill:#000000;fill-opacity:0.25098041;stroke:none;stroke-width:1.12323034;stroke-miterlimit:4;stroke-dasharray:none;stroke-opacity:1" />
    <path
       id="path4554"
       d="M 237.75586 8.6074219 L 237.75586 20.470703 A 67.623474 67.623474 0 0 1 239.59375 20.939453 A 67.623474 67.623474 0 0 1 245.94336 23.255859 A 67.623474 67.623474 0 0 1 252.0293 26.197266 A 67.623474 67.623474 0 0 1 257.79297 29.730469 A 67.623474 67.623474 0 0 1 263.17383 33.820312 A 67.623474 67.623474 0 0 1 268.11914 38.427734 A 67.623474 67.623474 0 0 1 272.58008 43.505859 A 67.623474 67.623474 0 0 1 276.51172 49.005859 A 67.623474 67.623474 0 0 1 279.875 54.869141 A 67.623474 67.623474 0 0 1 282.63672 61.039062 A 67.623474 67.623474 0 0 1 284.76758 67.453125 A 67.623474 67.623474 0 0 1 284.79297 67.5625 L 296.57422 67.5625 A 79.139954 79.139954 0 0 0 237.75586 8.6074219 z "
       style="fill:#000000;fill-opacity:0.25098041;stroke:none;stroke-width:1.12323034;stroke-miterlimit:4;stroke-dasharray:none;stroke-opacity:1" />
    <path
       id="path4549"
       d="M 201.46289 8.5996094 A 79.139954 79.139954 0 0 0 142.5918 67.5625 L 154.49414 67.5625 A 67.623474 67.623474 0 0 1 155.00586 65.558594 A 67.623474 67.623474 0 0 1 157.32422 59.208984 A 67.623474 67.623474 0 0 1 160.26367 53.121094 A 67.623474 67.623474 0 0 1 163.79688 47.359375 A 67.623474 67.623474 0 0 1 167.88867 41.978516 A 67.623474 67.623474 0 0 1 172.49609 37.03125 A 67.623474 67.623474 0 0 1 177.57422 32.570312 A 67.623474 67.623474 0 0 1 183.07227 28.638672 A 67.623474 67.623474 0 0 1 188.93555 25.275391 A 67.623474 67.623474 0 0 1 195.10547 22.513672 A 67.623474 67.623474 0 0 1 201.46289 20.402344 L 201.46289 8.5996094 z "
       style="fill:#000000;fill-opacity:0.25098041;stroke:none;stroke-width:1.12323034;stroke-miterlimit:4;stroke-dasharray:none;stroke-opacity:1" />
    <animateTransform
       attributeName="transform"
       attributeType="XML"
       type="rotate"
       from="0 219.6 86"
       to="360 219.6 86"
       begin="0s"
       dur="1s"
       repeatCount="indefinite" />
  </g>
  <path
     style="fill:#000000;fill-opacity:0.25098041;stroke:none;stroke-width:0.83705705;stroke-miterlimit:4;stroke-dasharray:none;stroke-opacity:1"
     d="M 161.02344 79.367188 A 58.976906 58.976906 0 0 0 160.63281 85.542969 A 58.976906 58.976906 0 0 0 219.60938 144.51953 A 58.976906 58.976906 0 0 0 278.58594 85.542969 A 58.976906 58.976906 0 0 0 219.60938 26.564453 A 58.976906 58.976906 0 0 0 218.37695 26.626953 L 218.37695 30.431641 A 55.493431 55.153507 0 0 1 219.60938 30.388672 A 55.493431 55.153507 0 0 1 225.14844 30.664062 A 55.493431 55.153507 0 0 1 230.63477 31.488281 A 55.493431 55.153507 0 0 1 236.00781 32.851562 A 55.493431 55.153507 0 0 1 241.21875 34.742188 A 55.493431 55.153507 0 0 1 246.21484 37.140625 A 55.493431 55.153507 0 0 1 250.94336 40.021484 A 55.493431 55.153507 0 0 1 255.35938 43.357422 A 55.493431 55.153507 0 0 1 259.41797 47.117188 A 55.493431 55.153507 0 0 1 263.07812 51.257812 A 55.493431 55.153507 0 0 1 266.30469 55.742188 A 55.493431 55.153507 0 0 1 269.06445 60.525391 A 55.493431 55.153507 0 0 1 271.33203 65.556641 A 55.493431 55.153507 0 0 1 273.08008 70.789062 A 55.493431 55.153507 0 0 1 274.29492 76.167969 A 55.493431 55.153507 0 0 1 274.96289 81.640625 A 55.493431 55.153507 0 0 1 275.10352 85.542969 A 55.493431 55.153507 0 0 1 274.82617 91.048828 A 55.493431 55.153507 0 0 1 273.99609 96.5 A 55.493431 55.153507 0 0 1 272.625 101.8418 A 55.493431 55.153507 0 0 1 270.72266 107.01953 A 55.493431 55.153507 0 0 1 268.30859 111.98438 A 55.493431 55.153507 0 0 1 265.41016 116.68359 A 55.493431 55.153507 0 0 1 262.05273 121.07227 A 55.493431 55.153507 0 0 1 258.27148 125.10742 A 55.493431 55.153507 0 0 1 254.10352 128.74609 A 55.493431 55.153507 0 0 1 249.5918 131.95312 A 55.493431 55.153507 0 0 1 244.78125 134.69531 A 55.493431 55.153507 0 0 1 239.7168 136.94727 A 55.493431 55.153507 0 0 1 234.45312 138.68555 A 55.493431 55.153507 0 0 1 229.04102 139.89258 A 55.493431 55.153507 0 0 1 223.53516 140.55664 A 55.493431 55.153507 0 0 1 219.60938 140.69531 A 55.493431 55.153507 0 0 1 214.06836 140.41992 A 55.493431 55.153507 0 0 1 208.58398 139.5957 A 55.493431 55.153507 0 0 1 203.20898 138.23242 A 55.493431 55.153507 0 0 1 197.99805 136.3418 A 55.493431 55.153507 0 0 1 193.00391 133.94336 A 55.493431 55.153507 0 0 1 188.27539 131.0625 A 55.493431 55.153507 0 0 1 183.85938 127.72656 A 55.493431 55.153507 0 0 1 179.80078 123.96875 A 55.493431 55.153507 0 0 1 176.13867 119.82617 A 55.493431 55.153507 0 0 1 172.91211 115.3418 A 55.493431 55.153507 0 0 1 170.15234 110.55859 A 55.493431 55.153507 0 0 1 167.88672 105.52734 A 55.493431 55.153507 0 0 1 166.13867 100.29492 A 55.493431 55.153507 0 0 1 164.92383 94.916016 A 55.493431 55.153507 0 0 1 164.25391 89.443359 A 55.493431 55.153507 0 0 1 164.11523 85.542969 A 55.493431 55.153507 0 0 1 164.39258 80.035156 A 55.493431 55.153507 0 0 1 164.49414 79.367188 L 161.02344 79.367188 z "
     id="path4577">
    <animateTransform
       attributeName="transform"
       attributeType="XML"
       type="rotate"
       from="360 219.608 86.458"
       to="0 219.608 86.458"
       begin="0s"
       dur="1s"
       repeatCount="indefinite" />
  </path>
  <rect
     style="fill:#ffffff;fill-opacity:1;stroke:none;stroke-width:0.94815958;stroke-miterlimit:4;stroke-dasharray:none;stroke-opacity:1"
     id="rect4587"
     width="291.32669"
     height="20.483034"
     x="-3.0418904"
     y="75.720406"
     transform="matrix(0.98780474,0.15569779,-0.15534136,0.98786085,0,0)" />
  <text
     xml:space="preserve"
     style="font-style:normal;font-weight:normal;font-size:55.02754974px;line-height:1.25;font-family:sans-serif;letter-spacing:0px;word-spacing:0px;fill:#000000;fill-opacity:1;stroke:none;stroke-width:1.37568867"
     x="266.64273"
     y="90.613014"
     id="text4591"
     transform="rotate(9)"><tspan
       sodipodi:role="line"
       id="tspan4589"
       x="266.64273"
       y="90.613014"
       style="font-style:italic;font-variant:normal;font-weight:bold;font-stretch:normal;font-size:13.33333302px;line-height:68.78443146px;font-family:Arial;-inkscape-font-specification:'Arial Bold Italic';text-align:end;word-spacing:0.27513775px;text-anchor:end;stroke-width:1.37568867"
       rotate="0 0 0 0 0 0 0 0 0 0 0 0 0 0">ERNEST TOCKER</tspan></text>
  <!-- Yeah, change the link below when you make it a php -->
  <image
     width="256"
     height="192"
     preserveAspectRatio="none"
     xlink:href="https://i.imgur.com/cKsKEs9.gif"
     id="image10"
     x="-64"
     y="0"
     sodipodi:absref="C:\Users\Eitan\Downloads\Fancase Crap\DR Crossover\Ernest Tocker\normal-a.gif" />
  <text
     xml:space="preserve"
     style="font-style:normal;font-weight:normal;font-size:40px;line-height:1.25;font-family:sans-serif;letter-spacing:0px;word-spacing:0px;fill:#000000;fill-opacity:1;stroke:none"
     x="266.53415"
     y="69.778511"
     id="text4601"
     transform="rotate(9)"><tspan
       sodipodi:role="line"
       id="tspan4599"
       x="266.53415"
       y="69.778511"
       style="font-style:italic;font-variant:normal;font-weight:normal;font-stretch:normal;font-size:13.33333333px;font-family:'Poor Richard';-inkscape-font-specification:'Poor Richard Italic';text-align:end;text-anchor:end">Ultimate Honesty</tspan></text>
</svg>
